<svg viewBox="0 0 40 40" fill="none" xmlns="http://www.w3.org/2000/svg">
  <!-- Background circle -->
  <circle cx="20" cy="20" r="18" fill="#4F46E5" opacity="0.1" stroke="#4F46E5" stroke-width="1"/>

  <!-- Microphone symbol -->
  <rect x="16" y="8" width="8" height="12" rx="4" fill="#4F46E5"/>
  <path d="M12 20C12 17.79 13.79 16 16 16V24C13.79 24 12 22.21 12 20Z" fill="#4F46E5"/>
  <path d="M28 20C28 17.79 26.21 16 24 16V24C26.21 24 28 22.21 28 20Z" fill="#4F46E5"/>

  <!-- Sound wave lines -->
  <path d="M10 20C10 15.58 13.58 12 18 12" stroke="#4F46E5" stroke-width="1.5" stroke-linecap="round" fill="none"/>
  <path d="M30 20C30 15.58 26.42 12 22 12" stroke="#4F46E5" stroke-width="1.5" stroke-linecap="round" fill="none"/>

  <!-- Base line -->
  <line x1="14" y1="28" x2="26" y2="28" stroke="#4F46E5" stroke-width="1.5" stroke-linecap="round"/>
  <line x1="18" y1="28" x2="18" y2="32" stroke="#4F46E5" stroke-width="1.5" stroke-linecap="round"/>
  <line x1="22" y1="28" x2="22" y2="32" stroke="#4F46E5" stroke-width="1.5" stroke-linecap="round"/>
</svg>
